<?xml version="1.0" encoding="UTF-8" standalone="no"?>
<svg
   xmlns:dc="http://purl.org/dc/elements/1.1/"
   xmlns:cc="http://creativecommons.org/ns#"
   xmlns:rdf="http://www.w3.org/1999/02/22-rdf-syntax-ns#"
   xmlns:svg="http://www.w3.org/2000/svg"
   xmlns="http://www.w3.org/2000/svg"
   xml:space="preserve"
   enable-background="new 0 0 100 100"
   viewBox="5 -10 65.529998 88.467002"
   height="69.899857"
   width="69.898666"
   y="0px"
   x="0px"
   id="Layer_1"
   version="1.1"><metadata
     id="metadata3217"><rdf:RDF><cc:Work
         rdf:about=""><dc:format>image/svg+xml</dc:format><dc:type
           rdf:resource="http://purl.org/dc/dcmitype/StillImage" /><dc:title></dc:title></cc:Work></rdf:RDF></metadata><defs
     id="defs3215" /><g
     transform="matrix(0.71976401,0,0,0.71976401,10.755284,6.4440263)"
     id="g4584"><circle
       style="fill:#ffffff;fill-opacity:1;stroke:none;stroke-width:11.40259647;stroke-miterlimit:4;stroke-dasharray:none;stroke-opacity:1"
       id="path4499"
       cx="37.748257"
       cy="38.142006"
       r="59.956905" /><g
       id="g4568"><g
         transform="translate(3.4801842)"
         id="g3053"><rect
           style="fill:#ffffff;fill-opacity:1;fill-rule:evenodd;stroke:none"
           id="rect3441"
           width="69.634384"
           height="57.094864"
           x="-0.82754493"
           y="16.412359" /><path
           d="m 56.590815,-6.122 c 0,-1.766 -1.435,-3.203 -3.21,-3.203 -1.763,0 -3.202,1.438 -3.202,3.203 V 6.499 c 0,1.772 1.439,3.207 3.202,3.207 1.775,0 3.21,-1.434 3.21,-3.207 z"
           id="path3133"
           style="fill:#000000" /><path
           d="m 63.558815,1.128 h -4.345 v 5.371 c 0,3.215 -2.611,5.83 -5.833,5.83 -3.209,0 -5.823,-2.615 -5.823,-5.83 V 1.128 h -26.539 v 5.371 c 0,3.215 -2.61,5.83 -5.823,5.83 -3.213,0 -5.829,-2.615 -5.829,-5.83 V 1.128 H 5.0128146 c -4.94299991,0 -8.95,4.004 -8.953,8.95 v 58.764 c 0.003,4.941 4.00400009,8.947 8.953,8.95 H 63.558815 c 4.942,-0.003 8.945,-4.009 8.951,-8.95 V 10.077 c -0.006,-4.946 -4.009,-8.947 -8.951,-8.949 z m 1.54,67.713 c 0,0.845 -0.696,1.542 -1.54,1.542 H 5.0128146 c -0.851,0 -1.542,-0.697 -1.545,-1.542 V 21.827 H 65.098815 Z"
           id="path3135"
           style="fill:#000000" /><path
           d="m 18.399815,-6.122 c 0,-1.766 -1.438,-3.203 -3.204,-3.203 -1.775,0 -3.206,1.438 -3.206,3.203 V 6.499 c 0,1.772 1.431,3.207 3.206,3.207 1.766,0 3.204,-1.434 3.204,-3.207 z"
           id="path3137"
           style="fill:#000000" /><g
           id="g3395"
           transform="matrix(7.3303997,0,0,7.3303997,13.003235,24.159145)"><path
             id="path3397"
             style="fill:none;stroke:#000000;stroke-width:0.1"
             d="M 0,0 H 6 V 6 H 0 Z M 0,2 H 6 M 0,4 H 6 M 2,0 V 6 M 4,0 v 6" /><circle
             id="circle3399"
             r="0.80000001"
             cy="1"
             cx="3" /><circle
             id="circle3401"
             r="0.80000001"
             cy="3"
             cx="5" /><circle
             id="circle3403"
             r="0.80000001"
             cy="5"
             cx="1" /><circle
             id="circle3405"
             r="0.80000001"
             cy="5"
             cx="3" /><circle
             id="circle3407"
             r="0.80000001"
             cy="5"
             cx="5" /></g></g></g></g></svg>