<?xml version="1.0" encoding="UTF-8" standalone="no"?>
<svg
   xmlns:dc="http://purl.org/dc/elements/1.1/"
   xmlns:cc="http://creativecommons.org/ns#"
   xmlns:rdf="http://www.w3.org/1999/02/22-rdf-syntax-ns#"
   xmlns:svg="http://www.w3.org/2000/svg"
   xmlns="http://www.w3.org/2000/svg"
   xmlns:sodipodi="http://sodipodi.sourceforge.net/DTD/sodipodi-0.dtd"
   xmlns:inkscape="http://www.inkscape.org/namespaces/inkscape"
   version="1.1"
   id="Layer_1"
   x="0px"
   y="0px"
   width="58.029629"
   height="65.531113"
   viewBox="5 -10 58.029628 88.467002"
   enable-background="new 0 0 100 100"
   xml:space="preserve"
   inkscape:version="0.48.5 r10040"
   sodipodi:docname="hacken_in.svg"
   inkscape:export-filename="/Users/bodo/Downloads/hacken_in.png"
   inkscape:export-xdpi="775.46997"
   inkscape:export-ydpi="775.46997"><metadata
     id="metadata3217"><rdf:RDF><cc:Work
         rdf:about=""><dc:format>image/svg+xml</dc:format><dc:type
           rdf:resource="http://purl.org/dc/dcmitype/StillImage" /><dc:title></dc:title></cc:Work></rdf:RDF></metadata><defs
     id="defs3215" /><sodipodi:namedview
     pagecolor="#ffffff"
     bordercolor="#666666"
     borderopacity="1"
     objecttolerance="10"
     gridtolerance="10"
     guidetolerance="10"
     inkscape:pageopacity="0"
     inkscape:pageshadow="2"
     inkscape:window-width="1520"
     inkscape:window-height="921"
     id="namedview3213"
     showgrid="false"
     inkscape:zoom="5.06"
     inkscape:cx="48.477201"
     inkscape:cy="22.7619"
     inkscape:window-x="61"
     inkscape:window-y="6"
     inkscape:window-maximized="0"
     inkscape:current-layer="Layer_1"
     fit-margin-top="0.5"
     fit-margin-left="0.9"
     fit-margin-right="0.5"
     fit-margin-bottom="0.5" /><rect
     style="fill:#ffffff;fill-opacity:1;fill-rule:evenodd;stroke:none"
     id="rect3441"
     width="69.634384"
     height="57.094864"
     x="-0.82754493"
     y="16.412359" /><path
     d="m 56.590815,-6.122 c 0,-1.766 -1.435,-3.203 -3.21,-3.203 -1.763,0 -3.202,1.438 -3.202,3.203 V 6.499 c 0,1.772 1.439,3.207 3.202,3.207 1.775,0 3.21,-1.434 3.21,-3.207 V -6.122 z"
     id="path3133"
     inkscape:connector-curvature="0"
     style="fill:#000000" /><path
     d="m 63.558815,1.128 h -4.345 v 5.371 c 0,3.215 -2.611,5.83 -5.833,5.83 -3.209,0 -5.823,-2.615 -5.823,-5.83 V 1.128 h -26.539 v 5.371 c 0,3.215 -2.61,5.83 -5.823,5.83 -3.213,0 -5.829,-2.615 -5.829,-5.83 V 1.128 H 5.0128146 c -4.94299991,0 -8.95,4.004 -8.953,8.95 v 58.764 c 0.003,4.941 4.00400009,8.947 8.953,8.95 H 63.558815 c 4.942,-0.003 8.945,-4.009 8.951,-8.95 V 10.077 c -0.006,-4.946 -4.009,-8.947 -8.951,-8.949 z m 1.54,67.713 c 0,0.845 -0.696,1.542 -1.54,1.542 H 5.0128146 c -0.851,0 -1.542,-0.697 -1.545,-1.542 V 21.827 H 65.098815 v 47.014 z"
     id="path3135"
     inkscape:connector-curvature="0"
     style="fill:#000000" /><path
     d="m 18.399815,-6.122 c 0,-1.766 -1.438,-3.203 -3.204,-3.203 -1.775,0 -3.206,1.438 -3.206,3.203 V 6.499 c 0,1.772 1.431,3.207 3.206,3.207 1.766,0 3.204,-1.434 3.204,-3.207 V -6.122 z"
     id="path3137"
     inkscape:connector-curvature="0"
     style="fill:#000000" /><g
     id="g3395"
     transform="matrix(7.3303997,0,0,7.3303997,13.003235,24.159145)"><path
       id="path3397"
       style="fill:none;stroke:#000000;stroke-width:0.1"
       d="M 0,0 H 6 V 6 H 0 z M 0,2 H 6 M 0,4 H 6 M 2,0 V 6 M 4,0 v 6"
       inkscape:connector-curvature="0" /><circle
       id="circle3399"
       r="0.80000001"
       cy="1"
       cx="3"
       sodipodi:cx="3"
       sodipodi:cy="1"
       sodipodi:rx="0.80000001"
       sodipodi:ry="0.80000001"
       d="M 3.8,1 C 3.8,1.4418278 3.4418278,1.8 3,1.8 2.5581722,1.8 2.2,1.4418278 2.2,1 2.2,0.55817219 2.5581722,0.19999999 3,0.19999999 3.4418278,0.19999999 3.8,0.55817219 3.8,1 z" /><circle
       id="circle3401"
       r="0.80000001"
       cy="3"
       cx="5"
       sodipodi:cx="5"
       sodipodi:cy="3"
       sodipodi:rx="0.80000001"
       sodipodi:ry="0.80000001"
       d="M 5.8,3 C 5.8,3.4418278 5.4418278,3.8 5,3.8 4.5581722,3.8 4.2,3.4418278 4.2,3 4.2,2.5581722 4.5581722,2.2 5,2.2 5.4418278,2.2 5.8,2.5581722 5.8,3 z" /><circle
       id="circle3403"
       r="0.80000001"
       cy="5"
       cx="1"
       sodipodi:cx="1"
       sodipodi:cy="5"
       sodipodi:rx="0.80000001"
       sodipodi:ry="0.80000001"
       d="M 1.8,5 C 1.8,5.4418278 1.4418278,5.8 1,5.8 0.55817219,5.8 0.19999999,5.4418278 0.19999999,5 0.19999999,4.5581722 0.55817219,4.2 1,4.2 1.4418278,4.2 1.8,4.5581722 1.8,5 z" /><circle
       id="circle3405"
       r="0.80000001"
       cy="5"
       cx="3"
       sodipodi:cx="3"
       sodipodi:cy="5"
       sodipodi:rx="0.80000001"
       sodipodi:ry="0.80000001"
       d="M 3.8,5 C 3.8,5.4418278 3.4418278,5.8 3,5.8 2.5581722,5.8 2.2,5.4418278 2.2,5 2.2,4.5581722 2.5581722,4.2 3,4.2 3.4418278,4.2 3.8,4.5581722 3.8,5 z" /><circle
       id="circle3407"
       r="0.80000001"
       cy="5"
       cx="5"
       sodipodi:cx="5"
       sodipodi:cy="5"
       sodipodi:rx="0.80000001"
       sodipodi:ry="0.80000001"
       d="M 5.8,5 C 5.8,5.4418278 5.4418278,5.8 5,5.8 4.5581722,5.8 4.2,5.4418278 4.2,5 4.2,4.5581722 4.5581722,4.2 5,4.2 5.4418278,4.2 5.8,4.5581722 5.8,5 z" /></g></svg>